# Blender 4.3.2
# www.blender.org
mtllib navmesh.mtl
o Plane.001
v -5.000000 0.000000 5.000000
v 5.000000 0.000000 5.000000
v -5.000000 0.000000 -8.000000
v 5.000000 0.000000 -8.000000
v 1.000000 0.000000 7.000000
v 3.000000 0.000000 7.000000
v -1.000000 0.000000 5.000000
v 5.000000 0.000000 5.000000
v -5.814824 0.000045 2.802990
v -5.989983 0.000045 2.820242
v -6.158411 0.000045 2.871335
v -6.313635 0.000045 2.954304
v -6.449690 0.000045 3.065961
v -6.561348 0.000045 3.202016
v -6.644318 0.000045 3.357240
v -6.695410 0.000045 3.525669
v -6.712661 0.000045 3.700828
v -6.695410 0.000045 3.875988
v -6.644318 0.000045 4.044415
v -6.561348 0.000045 4.199640
v -6.449690 0.000045 4.335695
v -6.313635 0.000045 4.447352
v -6.158411 0.000045 4.530322
v -5.989983 0.000045 4.581414
v -5.814824 0.000045 4.598665
v -5.639664 0.000045 4.581414
v -5.471236 0.000045 4.530322
v -5.316012 0.000045 4.447352
v -5.179957 0.000045 4.335695
v -5.068299 0.000045 4.199640
v -4.985330 0.000045 4.044415
v -4.934237 0.000045 3.875988
v -4.916986 0.000045 3.700828
v -4.934237 0.000045 3.525669
v -4.985330 0.000045 3.357240
v -5.068299 0.000045 3.202016
v -5.179957 0.000045 3.065961
v -5.316012 0.000045 2.954304
v -5.471236 0.000045 2.871335
v -5.639664 0.000045 2.820242
vn -0.0000 1.0000 -0.0000
vt 0.000000 0.000000
vt 1.000000 0.000000
vt 1.000000 1.000000
vt 0.000000 1.000000
s 0
f 1/1/1 2/2/1 4/3/1 3/4/1
f 5/1/1 6/2/1 8/3/1 7/4/1
l 10 9
l 11 10
l 12 11
l 13 12
l 14 13
l 15 14
l 16 15
l 17 16
l 18 17
l 19 18
l 20 19
l 21 20
l 22 21
l 23 22
l 24 23
l 25 24
l 26 25
l 27 26
l 28 27
l 29 28
l 30 29
l 31 30
l 32 31
l 33 32
l 34 33
l 35 34
l 36 35
l 37 36
l 38 37
l 39 38
l 40 39
l 9 40
